<svg xmlns="http://www.w3.org/2000/svg" width="146" height="30" viewBox="0 0 146 30" fill="none">
<path d="M60.9431 2.52637V23.3934H63.628V2.52637H60.9431Z" fill="black"/>
<path d="M73.7028 21.514C72.2635 21.514 71.1654 21.0254 70.4083 20.0263C69.6271 19.025 69.2376 17.6363 69.2376 15.8296C69.2376 12.0488 70.7494 10.1694 73.727 10.1694C75.8506 10.1694 77.1182 11.1949 77.5342 13.2438H80.0716C79.8273 11.536 79.1451 10.2178 78.0227 9.29131C76.9246 8.36481 75.4853 7.90047 73.705 7.90047C71.4845 7.90047 69.7283 8.60909 68.4585 10.0483C67.1887 11.4634 66.5549 13.4396 66.5549 15.9528C66.5549 18.466 67.1887 20.3696 68.4343 21.7362C69.6777 23.1029 71.3876 23.7851 73.5575 23.7851C75.4127 23.7851 76.9004 23.2965 77.9985 22.3216C79.1209 21.3467 79.8031 19.9317 80.0716 18.1249H77.5584C77.1182 20.3938 75.8264 21.5162 73.7028 21.5162V21.514Z" fill="black"/>
<path d="M101.288 10.5919V19.6852C101.288 20.2464 101.385 20.6359 101.605 20.8318C101.801 21.0232 102.191 21.1487 102.752 21.1487H104.728V23.3934H101.971C100.8 23.3934 99.9461 23.1249 99.4069 22.5879C98.8721 22.0531 98.6036 21.1949 98.6036 20.0241V3.63992H101.286V8.28999H104.726V10.5919H101.286H101.288Z" fill="black"/>
<path d="M115.096 7.87406C112.851 7.87406 111.216 9.02062 110.166 11.338V8.28779H107.653V23.3912H110.338V15.1452C110.41 13.6817 110.875 12.5593 111.753 11.7297C112.607 10.9242 113.584 10.5105 114.68 10.5105C115.192 10.5105 115.509 10.5347 115.63 10.5347V7.90047C115.558 7.90047 115.386 7.87626 115.093 7.87626L115.096 7.87406Z" fill="black"/>
<path d="M89.7744 7.82564C85.822 7.82564 83.7225 9.46076 83.4805 12.7288H86.1389C86.2115 11.7539 86.5284 11.0695 87.0654 10.6557C87.6024 10.242 88.432 10.0461 89.5786 10.0461C91.8233 10.0461 92.9698 10.8274 92.9698 12.3877V13.0215C92.9698 13.7037 92.6045 14.0954 91.8717 14.168L88.0161 14.6566C84.5764 15.1209 82.8687 16.6812 82.8687 19.3903C82.8687 20.7569 83.3088 21.8551 84.2111 22.6099C85.1134 23.3912 86.359 23.7807 87.9193 23.7807C89.1384 23.7807 90.2124 23.5364 91.1895 23.0743C92.0918 22.6341 92.8004 22.0245 93.3374 21.2697V23.3934H95.6789V12.6584C95.6789 9.43875 93.7269 7.82784 89.7744 7.82784V7.82564ZM92.9698 18.0985C92.9698 19.0492 92.5055 19.9031 91.6274 20.6117C90.7251 21.3445 89.6512 21.6856 88.432 21.6856C87.5297 21.6856 86.8211 21.4898 86.3083 21.0518C85.7956 20.6117 85.5271 20.0263 85.5271 19.2715C85.5271 17.8322 86.502 16.9541 88.454 16.6614L92.9677 15.9792V18.1029L92.9698 18.0985Z" fill="black"/>
<path d="M52.1139 7.82563C48.1615 7.82563 46.062 9.46075 45.82 12.7288H48.4784C48.551 11.7539 48.8679 11.0695 49.4049 10.6557C49.9419 10.242 50.7715 10.0461 51.9181 10.0461C54.1628 10.0461 55.3094 10.8274 55.3094 12.3877V13.0215C55.3094 13.7037 54.944 14.0954 54.2112 14.168L50.3556 14.6566C46.9159 15.1209 45.2082 16.6812 45.2082 19.3903C45.2082 20.7569 45.6483 21.8551 46.5506 22.6099C47.4529 23.3911 48.6985 23.7807 50.2588 23.7807C51.4779 23.7807 52.5519 23.5364 53.529 23.0742C54.4313 22.6341 55.1399 22.0245 55.6769 21.2697V23.3934H58.0184V12.6584C58.0184 9.43874 56.0664 7.82783 52.1139 7.82783V7.82563ZM55.3094 18.0985C55.3094 19.0492 54.845 19.903 53.9669 20.6117C53.0646 21.3445 51.9907 21.6856 50.7715 21.6856C49.8692 21.6856 49.1606 21.4898 48.6478 21.0518C48.1351 20.6117 47.8666 20.0263 47.8666 19.2714C47.8666 17.8322 48.8415 16.9541 50.7935 16.6614L55.3072 15.9792V18.1029L55.3094 18.0985Z" fill="black"/>
<path d="M124.532 7.82564C120.58 7.82564 118.48 9.46076 118.238 12.7288H120.897C120.969 11.7539 121.286 11.0695 121.823 10.6557C122.36 10.242 123.19 10.0461 124.336 10.0461C126.581 10.0461 127.728 10.8274 127.728 12.3877V13.0215C127.728 13.7037 127.362 14.0954 126.629 14.168L122.774 14.6566C119.334 15.1209 117.626 16.6812 117.626 19.3903C117.626 20.7569 118.067 21.8551 118.969 22.6099C119.871 23.3912 121.117 23.7807 122.677 23.7807C123.896 23.7807 124.97 23.5364 125.947 23.0743C126.85 22.6341 127.558 22.0245 128.095 21.2697V23.3934H130.437V12.6584C130.437 9.43875 128.485 7.82784 124.532 7.82784V7.82564ZM127.728 18.0985C127.728 19.0492 127.263 19.9031 126.385 20.6117C125.483 21.3445 124.409 21.6856 123.19 21.6856C122.288 21.6856 121.579 21.4898 121.066 21.0518C120.553 20.6117 120.285 20.0263 120.285 19.2715C120.285 17.8322 121.26 16.9541 123.212 16.6614L127.725 15.9792V18.1029L127.728 18.0985Z" fill="black"/>
<path d="M136.533 21.2213L145.487 9.9251V8.28999H133.751V10.4621H142.12L133.361 21.4898V23.3934H146V21.2213H136.533Z" fill="black"/>
<g clip-path="url(#clip0_1408_6084)">
<path d="M32.422 4.94496C29.823 0.858271 22.455 0 16.731 0C11.007 0 3.64128 0.858271 1.04446 4.94276C-1.0594 8.2416 0.02774 13.4374 4.19146 19.9735C8.30896 26.4436 12.6443 29.8634 16.7244 29.8612H16.7354C20.8199 29.8612 25.1553 26.4436 29.2728 19.9735C33.4365 13.4396 34.5236 8.2416 32.422 4.94496ZM3.83714 13.7323C2.48592 10.5149 2.26585 7.93791 3.27157 6.36221C4.27728 4.77991 6.80588 3.64875 10.481 3.07437C9.19584 4.31556 7.91723 5.92427 6.66724 7.88509C5.30721 10.0198 4.36091 11.9784 3.83714 13.7323ZM16.7354 27.2204H16.7266C14.7196 27.2204 12.4023 25.8472 10.0497 23.3318C12.2218 23.8225 14.6184 23.9722 16.731 23.9722C18.8437 23.9722 21.2424 23.8225 23.4145 23.3318C21.062 25.8472 18.7447 27.2204 16.7354 27.2204ZM27.0347 18.5475C25.9277 20.2904 22.0765 21.3313 16.731 21.3313C11.3855 21.3313 7.53651 20.2904 6.42956 18.5475H6.42736C5.35562 16.8661 6.27772 13.4132 8.89434 9.30454C11.588 5.0748 14.4423 2.64964 16.731 2.64964H16.7354C19.0197 2.64964 21.8762 5.0748 24.5699 9.30454C27.1865 13.4132 28.1086 16.8661 27.0347 18.5475ZM29.6271 13.7367C29.1033 11.9806 28.157 10.0198 26.797 7.88509C25.5492 5.92647 24.275 4.31776 22.9898 3.07657C26.6628 3.65095 29.187 4.77991 30.1927 6.36221H30.1949C31.2006 7.93791 30.9783 10.5193 29.6271 13.7367Z" fill="#FF4500"/>
</g>
<defs>
<clipPath id="clip0_1408_6084">
<rect width="33.466" height="29.8612" fill="white"/>
</clipPath>
</defs>
</svg>